# xmcd
#
# Track frame offsets: 
#        150
#        15532
#        28577
#        57573
#        75290
#        100964
#        113834
#        143789
#        173857
#        184418
#        206768
#        221708
#        243619
#        262995
#
# Disc length: 3655 seconds
#
# Revision: 0
# Processed by: cddbd v1.5.2PL0 Copyright (c) Steve Scherf et al.
# Submitted via: ExactAudioCopy v0.99pb5
#
DISCID=c70e450e
DTITLE=Jim Campilongo - Orange
DYEAR=2010
DGENRE=Instrumental
TTITLE0=Backburner
TTITLE1=Awful Pretty Pretty Awful
TTITLE2=Blues for Roy
TTITLE3=No Expectations
TTITLE4=I'm Helen Keller You're a Waffle Iron
TTITLE5=Orange
TTITLE6=Chelsea Bridge
TTITLE7=Fingerpuppet
TTITLE8=Because You Like Trombone
TTITLE9=I've Got Blisters On My Fingers
TTITLE10=Huckleberry
TTITLE11=No Fun
TTITLE12=Maceo
TTITLE13=When You Wish Upon a Star
EXTD=
EXTT0=
EXTT1=
EXTT2=
EXTT3=
EXTT4=
EXTT5=
EXTT6=
EXTT7=
EXTT8=
EXTT9=
EXTT10=
EXTT11=
EXTT12=
EXTT13=
PLAYORDER=
